<svg fill="none" height="24" viewBox="0 0 24 24" width="24" xmlns="http://www.w3.org/2000/svg"><g fill="#0f0f0f"><path d="m23 4c0-1.65685-1.3431-3-3-3h-4c-.5523 0-1 .44772-1 1s.4477 1 1 1h4c.5523 0 1 .44772 1 1v4c0 .55228.4477 1 1 1s1-.44772 1-1z"/><path d="m23 16c0-.5523-.4477-1-1-1s-1 .4477-1 1v4c0 .5523-.4477 1-1 1h-4c-.5523 0-1 .4477-1 1s.4477 1 1 1h4c1.6569 0 3-1.3431 3-3z"/><path d="m4 21c-.55228 0-1-.4477-1-1v-4c0-.5523-.44772-1-1-1s-1 .4477-1 1v4c0 1.6569 1.34315 3 3 3h4c.55228 0 1-.4477 1-1s-.44772-1-1-1z"/><path d="m1 8c0 .55228.44772 1 1 1s1-.44772 1-1v-4c0-.55228.44772-1 1-1h4c.55228 0 1-.44772 1-1s-.44772-1-1-1h-4c-1.65685 0-3 1.34315-3 3z"/><path clip-rule="evenodd" d="m11 6c0-.55228-.4477-1-1-1h-4c-.55228 0-1 .44772-1 1v4c0 .5523.44772 1 1 1h4c.5523 0 1-.4477 1-1zm-2 1.5c0-.27614-.22386-.5-.5-.5h-1c-.27614 0-.5.22386-.5.5v1c0 .27614.22386.5.5.5h1c.27614 0 .5-.22386.5-.5z" fill-rule="evenodd"/><path clip-rule="evenodd" d="m18 13c.5523 0 1 .4477 1 1v4c0 .5523-.4477 1-1 1h-4c-.5523 0-1-.4477-1-1v-4c0-.5523.4477-1 1-1zm-3 2.5c0-.2761.2239-.5.5-.5h1c.2761 0 .5.2239.5.5v1c0 .2761-.2239.5-.5.5h-1c-.2761 0-.5-.2239-.5-.5z" fill-rule="evenodd"/><path d="m14 5c-.5523 0-1 .44772-1 1 0 .55229.4477 1 1 1h2.5c.2761 0 .5.22386.5.5v2.5c0 .5523.4477 1 1 1s1-.4477 1-1v-4c0-.55228-.4477-1-1-1z"/><path d="m14 8c-.5523 0-1 .44771-1 1v1c0 .5523.4477 1 1 1s1-.4477 1-1v-1c0-.55228-.4477-1-1-1z"/><path d="m6 13c-.55228 0-1 .4477-1 1v2c0 .5523.44772 1 1 1 .55229 0 1-.4477 1-1v-.5c0-.2761.22386-.5.5-.5h2.5c.5523 0 1-.4477 1-1s-.4477-1-1-1z"/><path d="m10 17c-.55229 0-1 .4477-1 1s.44771 1 1 1c.5523 0 1-.4477 1-1s-.4477-1-1-1z"/></g></svg>